<svg width="25" height="25" viewBox="0 0 25 25" fill="none" xmlns="http://www.w3.org/2000/svg">
<path d="M16.4581 4.3855H18.4581C18.9885 4.3855 19.4972 4.59621 19.8723 4.97128C20.2474 5.34636 20.4581 5.85507 20.4581 6.3855V20.3855C20.4581 20.9159 20.2474 21.4246 19.8723 21.7997C19.4972 22.1748 18.9885 22.3855 18.4581 22.3855H6.4581C5.92767 22.3855 5.41896 22.1748 5.04389 21.7997C4.66881 21.4246 4.4581 20.9159 4.4581 20.3855V6.3855C4.4581 5.85507 4.66881 5.34636 5.04389 4.97128C5.41896 4.59621 5.92767 4.3855 6.4581 4.3855H8.4581" stroke="black" stroke-width="2" stroke-linecap="round" stroke-linejoin="round"/>
<path d="M15.4581 2.3855H9.4581C8.90581 2.3855 8.4581 2.83321 8.4581 3.3855V5.3855C8.4581 5.93778 8.90581 6.3855 9.4581 6.3855H15.4581C16.0104 6.3855 16.4581 5.93778 16.4581 5.3855V3.3855C16.4581 2.83321 16.0104 2.3855 15.4581 2.3855Z" stroke="black" stroke-width="2" stroke-linecap="round" stroke-linejoin="round"/>
</svg>
