<svg width="36" height="19" viewBox="0 0 36 19" fill="none" xmlns="http://www.w3.org/2000/svg">
<path d="M36 17.8965L25.0473 8.60973L35.0902 0.127434V0H33.2353L23.5369 8.20354V0H22V17.9761H23.5369V9.12743L34.0656 18H36V17.8965Z" fill="white"/>
<g clip-path="url(#clip0_113_13899)">
<g clip-path="url(#clip1_113_13899)">
<path d="M0.742633 9.53687C1.49747 9.53687 2.46669 9.44549 3.37943 9.47976C4.27836 9.49262 5.16746 9.64854 6.00467 9.94012C6.85154 10.2556 7.6696 10.6291 8.45147 11.0573C8.662 11.1636 8.87382 11.2607 9.09205 11.3726C9.31029 11.4846 9.53366 11.576 9.76473 11.6799C10.2359 11.8844 10.7262 12.0523 11.2308 12.1826C11.7648 12.3128 12.3142 12.3802 12.8675 12.3859C13.4568 12.3927 14.046 12.3333 14.6185 12.2088C15.7849 11.9586 16.8815 11.4987 17.8407 10.8574C17.9614 10.7763 18.0692 10.6952 18.186 10.6107C18.2335 10.3708 18.2682 10.1286 18.2913 9.88186C18.1539 9.93441 18.0037 9.98924 17.8343 10.0407C16.8754 10.3511 15.8773 10.556 14.8624 10.6507C14.3374 10.6986 13.8098 10.7124 13.2822 10.6918C12.7777 10.6712 12.277 10.6153 11.7828 10.525C11.3091 10.4382 10.8444 10.316 10.3925 10.1606C10.164 10.0829 9.95087 9.99953 9.73649 9.91385C9.52211 9.82817 9.309 9.7345 9.09847 9.64311C8.28362 9.24681 7.42047 8.93482 6.52586 8.71324C5.57112 8.52218 4.58494 8.48965 3.61692 8.61728C2.23048 8.80006 0.78628 9.20673 0.0250244 9.27185V9.49918C0.262516 9.53002 0.502574 9.54259 0.742633 9.53687Z" fill="white"/>
<path d="M7.00738 7.90996C7.91205 8.21514 8.77235 8.62327 9.56852 9.12498L10.1641 9.47315C10.3635 9.59 10.5603 9.70208 10.7648 9.8082C11.1649 10.0288 11.5842 10.216 12.0203 10.3686C12.4718 10.5189 12.9452 10.6095 13.425 10.6357C13.9357 10.6643 14.449 10.6345 14.9532 10.5487C15.9424 10.3698 16.9072 10.0944 17.8334 9.72474L18.2913 9.54588C18.2913 9.33364 18.2759 9.1214 18.2553 8.90916C18.1318 8.89247 17.9942 8.87697 17.8527 8.86623C17.1259 8.81735 16.2216 8.84477 15.3481 8.79827C14.9108 8.77681 14.4734 8.74104 14.0425 8.68738C13.6115 8.63372 13.1832 8.56814 12.7574 8.47514C12.3265 8.38929 11.9033 8.27721 11.4878 8.14008C11.2807 8.06973 11.0697 7.99462 10.8549 7.91711L10.2156 7.66195C9.31661 7.26995 8.3747 6.96893 7.40615 6.76409C6.3094 6.56753 5.18198 6.56956 4.08606 6.77006C2.62322 7.02863 1.2445 7.59663 0.0571834 8.42983C0.0456061 8.50376 0.0340289 8.57887 0.0250244 8.64207C1.23036 8.04253 2.55656 7.6808 3.92012 7.57967C4.96335 7.48786 6.01431 7.60114 7.00738 7.90996ZM9.12601 18.1548C11.8235 18.1571 14.3846 17.0566 16.1251 15.1452C15.6761 15.3759 15.2071 15.5714 14.723 15.7295C14.1775 15.9036 13.6205 16.0455 13.0545 16.154C12.5066 16.2649 11.9753 16.3519 11.4505 16.4306C10.9256 16.5093 10.4059 16.5749 9.8811 16.613C9.6174 16.6273 9.35241 16.6381 9.08613 16.6428C8.81985 16.6476 8.54715 16.6297 8.27701 16.613C7.18747 16.5308 6.11593 16.3066 5.09456 15.9441C4.15423 15.6174 3.24992 15.2048 2.39836 14.7124C2.00216 14.4835 1.62654 14.2688 1.27536 14.0375C2.09038 15.2926 3.24143 16.3312 4.61691 17.0525C5.9924 17.7739 7.54563 18.1536 9.12601 18.1548Z" fill="white"/>
<path d="M5.13227 13.4301C6.06471 13.8494 7.02257 14.219 8.00111 14.537C8.25693 14.6187 8.51666 14.6957 8.78031 14.7666C9.04266 14.8375 9.31283 14.9096 9.58431 14.9805C10.1286 15.1019 10.682 15.1885 11.2393 15.2401C11.811 15.2894 12.3866 15.2786 12.9543 15.2101C13.56 15.1368 14.1551 14.9986 14.7255 14.799C15.6984 14.4574 16.5974 13.9588 17.3803 13.3267C17.6478 12.8579 17.8671 12.3688 18.0355 11.8628L17.9794 11.9144C16.977 12.5391 15.8399 12.9569 14.6459 13.1392C14.0494 13.2341 13.4464 13.2858 12.8421 13.2906C12.2665 13.2954 11.6909 13.2654 11.1192 13.1981C10.5867 13.1392 10.0581 13.049 9.53863 12.9265C9.28803 12.8664 9.04135 12.8003 8.79989 12.7341C8.55843 12.6668 8.33524 12.5887 8.10291 12.519C7.17361 12.2173 6.31087 11.9156 5.44813 11.7029C4.59714 11.5082 3.72918 11.3892 2.85339 11.3459C1.99588 11.2858 1.11878 11.2991 0.412669 11.1104C0.279538 11.0767 0.149018 11.0322 0.0250244 10.9781C0.055044 11.1176 0.087674 11.2546 0.122914 11.3916C0.199921 11.4409 0.280844 11.4878 0.35524 11.5334C1.03003 11.8976 1.84056 12.1007 2.63151 12.4048C3.42116 12.7065 4.24604 13.0286 5.13227 13.4301ZM0.976516 6.21376C1.93074 5.57915 3.03542 5.16302 4.19906 4.99983C5.33961 4.82677 6.50621 4.86518 7.63043 5.11281C8.6511 5.33877 9.64044 5.6753 10.5763 6.11521L11.2406 6.42169L11.8723 6.73179C12.2861 6.94573 12.6933 7.12722 13.0979 7.29428C13.4963 7.45384 13.9125 7.57235 14.3392 7.64765C14.7634 7.71736 15.1941 7.74981 15.6248 7.7438C16.4875 7.7438 17.3607 7.63683 18.0446 7.69452C18.1308 7.69452 18.2117 7.71135 18.2913 7.72457C18.2221 7.39284 18.1308 7.06472 18.0198 6.7414C17.3777 6.32674 16.7003 5.96016 15.9955 5.64526C15.6143 5.46497 15.2215 5.28588 14.8077 5.12483C14.3862 4.95764 13.9538 4.81474 13.513 4.69695C13.0666 4.58397 12.6045 4.48301 12.1177 4.37363C11.8802 4.32195 11.6413 4.27267 11.3998 4.2258C11.1675 4.17411 10.9117 4.12484 10.665 4.08036C9.64696 3.87844 8.60933 3.76306 7.56908 3.73542C6.42794 3.71796 5.29072 3.8631 4.19775 4.1657C3.0169 4.50079 1.92933 5.06839 1.01045 5.82915C0.79543 6.01212 0.594794 6.20893 0.410058 6.41809C0.359156 6.5491 0.309558 6.68131 0.266486 6.81352C0.479234 6.59116 0.716781 6.39044 0.976516 6.21376Z" fill="white"/>
<path d="M10.5199 1.72942C10.7876 1.8071 11.0553 1.89673 11.3179 1.99532C11.5806 2.09392 11.842 2.22388 12.0983 2.35235C12.6021 2.61377 13.0921 2.90955 13.5669 3.2382C14.0303 3.54742 14.466 3.84769 14.8764 4.11359C15.2868 4.37949 15.677 4.61851 16.0482 4.8396C16.4978 5.1055 16.9372 5.3714 17.3299 5.65673C15.0532 0.432763 9.62708 -1.61978 5.2112 1.07362C4.35813 1.59373 3.58096 2.27205 2.90918 3.08284C3.35872 2.7273 3.83857 2.42555 4.33989 2.18355C5.30203 1.72361 6.32363 1.46189 7.36042 1.40974C8.42114 1.33355 9.48565 1.44111 10.5199 1.72942Z" fill="white"/>
</g>
</g>
<defs>
<clipPath id="clip0_113_13899">
<rect width="19" height="19.0019" fill="white"/>
</clipPath>
<clipPath id="clip1_113_13899">
<rect width="94.5214" height="94.5306" fill="white"/>
</clipPath>
</defs>
</svg>
