<svg width="184" height="25" viewBox="0 0 184 25" fill="none" xmlns="http://www.w3.org/2000/svg">
<path d="M12.3761 0.324951C4.75607 0.324951 0.976074 5.87495 0.976074 11.955C0.976074 17.9249 4.78607 23.6749 12.3761 23.6749C19.9661 23.6749 23.7361 17.955 23.7761 12.0149C23.8061 5.91495 19.9961 0.324951 12.3761 0.324951ZM12.3761 1.93495C18.8661 1.93495 22.0961 6.75495 22.0961 11.985C22.0961 17.0849 18.8361 22.055 12.3761 22.055C5.94607 22.055 2.71607 17.0849 2.68607 11.985C2.65607 6.65495 5.88607 1.93495 12.3761 1.93495Z" fill="white"/>
<path d="M26.9779 7.33492V23.2849H28.5579V14.4049C28.5579 11.1149 30.8479 8.62492 34.1479 8.59492C37.5979 8.55492 39.8279 10.4949 39.8279 14.1149V23.2849H41.4079V14.0849C41.4079 9.65492 38.4679 7.04492 34.2079 7.04492C31.9779 7.07492 29.7479 7.97492 28.5279 10.1749V7.33492H26.9779Z" fill="white"/>
<path d="M53.0821 23.5149C55.6321 23.5149 58.4121 22.4749 59.9621 20.445L58.8321 19.535C57.6321 21.125 55.1821 21.965 53.0821 21.965C49.7821 21.965 46.9121 19.795 46.5921 16.055H60.9621C61.5721 9.81495 57.5721 7.07495 53.0821 7.07495C48.5921 7.07495 44.9721 10.525 44.9721 15.305C44.9721 20.375 48.5921 23.5149 53.0821 23.5149ZM46.5921 14.665C46.9421 10.755 49.7821 8.52495 53.0821 8.52495C56.9221 8.52495 59.5021 10.725 59.5421 14.665H46.5921Z" fill="white"/>
<path d="M80.825 23.1549L68.425 11.4949L79.795 0.844936V0.684937H77.695L66.715 10.9849V0.684937H64.975V23.2549H66.715V12.1449L78.635 23.2849H80.825V23.1549Z" fill="white"/>
<g clip-path="url(#clip0_5_25)">
<g clip-path="url(#clip1_5_25)">
<path d="M83.7426 15.3002C84.4975 15.3002 85.4667 15.2088 86.3794 15.2431C87.2784 15.2559 88.1675 15.4118 89.0047 15.7034C89.8515 16.0189 90.6696 16.3924 91.4515 16.8206C91.662 16.9269 91.8738 17.024 92.0921 17.1359C92.3103 17.2479 92.5337 17.3393 92.7647 17.4432C93.2359 17.6477 93.7262 17.8156 94.2308 17.9459C94.7648 18.0761 95.3142 18.1435 95.8675 18.1492C96.4568 18.1561 97.046 18.0967 97.6185 17.9721C98.7849 17.7219 99.8815 17.262 100.841 16.6207C100.961 16.5396 101.069 16.4585 101.186 16.374C101.234 16.1341 101.268 15.8919 101.291 15.6452C101.154 15.6977 101.004 15.7526 100.834 15.804C99.8754 16.1144 98.8773 16.3193 97.8624 16.414C97.3374 16.4619 96.8098 16.4757 96.2822 16.4551C95.7777 16.4345 95.277 16.3786 94.7828 16.2883C94.3091 16.2015 93.8444 16.0793 93.3925 15.9239C93.164 15.8462 92.9509 15.7628 92.7365 15.6772C92.5221 15.5915 92.309 15.4978 92.0985 15.4064C91.2836 15.0101 90.4205 14.6981 89.5259 14.4765C88.5711 14.2855 87.5849 14.253 86.6169 14.3806C85.2305 14.5634 83.7863 14.97 83.025 15.0352V15.2625C83.2625 15.2933 83.5026 15.3059 83.7426 15.3002Z" fill="white"/>
<path d="M90.0074 13.6733C90.9121 13.9784 91.7723 14.3866 92.5685 14.8883L93.1641 15.2365C93.3635 15.3533 93.5603 15.4654 93.7648 15.5715C94.1649 15.7921 94.5842 15.9793 95.0203 16.1319C95.4718 16.2822 95.9452 16.3728 96.425 16.399C96.9357 16.4276 97.449 16.3978 97.9532 16.312C98.9424 16.1331 99.9072 15.8577 100.833 15.488L101.291 15.3092C101.291 15.0969 101.276 14.8847 101.255 14.6725C101.132 14.6558 100.994 14.6403 100.853 14.6295C100.126 14.5807 99.2216 14.6081 98.3481 14.5616C97.9108 14.5401 97.4734 14.5043 97.0425 14.4507C96.6115 14.397 96.1832 14.3314 95.7574 14.2384C95.3265 14.1526 94.9033 14.0405 94.4878 13.9034C94.2807 13.833 94.0697 13.7579 93.8549 13.6804L93.2156 13.4253C92.3166 13.0333 91.3747 12.7322 90.4061 12.5274C89.3094 12.3308 88.182 12.3329 87.0861 12.5334C85.6232 12.7919 84.2445 13.3599 83.0572 14.1931C83.0456 14.2671 83.034 14.3422 83.025 14.4054C84.2304 13.8058 85.5566 13.4441 86.9201 13.343C87.9634 13.2512 89.0143 13.3644 90.0074 13.6733ZM92.126 23.9181C94.8235 23.9205 97.3846 22.8199 99.1251 20.9085C98.6761 21.1392 98.2071 21.3347 97.723 21.4928C97.1775 21.6669 96.6205 21.8088 96.0545 21.9173C95.5066 22.0282 94.9753 22.1152 94.4505 22.1939C93.9256 22.2726 93.4059 22.3382 92.8811 22.3763C92.6174 22.3906 92.3524 22.4014 92.0861 22.4061C91.8199 22.4109 91.5471 22.393 91.277 22.3763C90.1875 22.2941 89.1159 22.0699 88.0946 21.7074C87.1542 21.3807 86.2499 20.9682 85.3984 20.4757C85.0022 20.2468 84.6265 20.0321 84.2754 19.8008C85.0904 21.0559 86.2414 22.0945 87.6169 22.8158C88.9924 23.5372 90.5456 23.9169 92.126 23.9181Z" fill="white"/>
<path d="M88.1323 19.1934C89.0647 19.6127 90.0226 19.9823 91.0011 20.3003C91.2569 20.3821 91.5167 20.459 91.7803 20.5299C92.0427 20.6008 92.3128 20.6729 92.5843 20.7438C93.1286 20.8652 93.682 20.9518 94.2393 21.0034C94.811 21.0527 95.3866 21.0419 95.9543 20.9734C96.56 20.9001 97.1551 20.7619 97.7255 20.5623C98.6984 20.2207 99.5974 19.7221 100.38 19.09C100.648 18.6212 100.867 18.1321 101.035 17.6261L100.979 17.6777C99.977 18.3024 98.8399 18.7202 97.6459 18.9025C97.0494 18.9974 96.4464 19.0491 95.8421 19.0539C95.2665 19.0587 94.6909 19.0287 94.1192 18.9614C93.5867 18.9025 93.0581 18.8124 92.5386 18.6898C92.288 18.6297 92.0414 18.5636 91.7999 18.4975C91.5584 18.4301 91.3352 18.352 91.1029 18.2823C90.1736 17.9806 89.3109 17.6789 88.4481 17.4662C87.5971 17.2715 86.7292 17.1525 85.8534 17.1092C84.9959 17.0491 84.1188 17.0624 83.4127 16.8737C83.2795 16.84 83.149 16.7955 83.025 16.7415C83.055 16.8809 83.0877 17.0179 83.1229 17.1549C83.1999 17.2042 83.2808 17.2511 83.3552 17.2967C84.03 17.6609 84.8406 17.864 85.6315 18.1681C86.4212 18.4698 87.246 18.7919 88.1323 19.1934ZM83.9765 11.9771C84.9307 11.3425 86.0354 10.9263 87.1991 10.7631C88.3396 10.5901 89.5062 10.6285 90.6304 10.8761C91.6511 11.1021 92.6404 11.4386 93.5763 11.8785L94.2406 12.185L94.8723 12.4951C95.2861 12.709 95.6933 12.8905 96.0979 13.0576C96.4963 13.2171 96.9125 13.3357 97.3392 13.411C97.7634 13.4807 98.1941 13.5131 98.6248 13.5071C99.4875 13.5071 100.361 13.4001 101.045 13.4578C101.131 13.4578 101.212 13.4747 101.291 13.4879C101.222 13.1561 101.131 12.828 101.02 12.5047C100.378 12.09 99.7003 11.7235 98.9955 11.4086C98.6143 11.2283 98.2215 11.0492 97.8077 10.8881C97.3862 10.721 96.9538 10.578 96.513 10.4603C96.0666 10.3473 95.6045 10.2463 95.1177 10.1369C94.8802 10.0853 94.6413 10.036 94.3998 9.9891C94.1675 9.93742 93.9117 9.88814 93.665 9.84367C92.647 9.64175 91.6093 9.52637 90.5691 9.49872C89.4279 9.48126 88.2907 9.62641 87.1978 9.92901C86.0169 10.2641 84.9293 10.8317 84.0105 11.5925C83.7954 11.7754 83.5948 11.9722 83.4101 12.1814C83.3592 12.3124 83.3096 12.4446 83.2665 12.5768C83.4792 12.3545 83.7168 12.1537 83.9765 11.9771Z" fill="white"/>
<path d="M93.5199 7.49272C93.7876 7.5704 94.0553 7.66003 94.3179 7.75863C94.5806 7.85722 94.842 7.98719 95.0983 8.11566C95.6021 8.37708 96.0921 8.67286 96.5669 9.0015C97.0303 9.31073 97.466 9.61099 97.8764 9.8769C98.2868 10.1428 98.677 10.3818 99.0482 10.6029C99.4978 10.8688 99.9372 11.1347 100.33 11.42C98.0532 6.19607 92.6271 4.14353 88.2112 6.83693C87.3581 7.35704 86.581 8.03536 85.9092 8.84614C86.3587 8.49061 86.8386 8.18885 87.3399 7.94685C88.302 7.48691 89.3236 7.2252 90.3604 7.17304C91.4211 7.09686 92.4856 7.20441 93.5199 7.49272Z" fill="white"/>
</g>
</g>
<path d="M106.978 7.33492V23.2849H108.558V14.4049C108.558 11.1149 110.848 8.62492 114.148 8.59492C117.598 8.55492 119.828 10.4949 119.828 14.1149V23.2849H121.408V14.0849C121.408 9.65492 118.468 7.04492 114.208 7.04492C111.978 7.07492 109.748 7.97492 108.528 10.1749V7.33492H106.978Z" fill="white"/>
<path d="M137.824 9.20495C136.244 7.71495 134.214 7.07495 131.884 7.07495C128.654 7.04495 125.524 8.39495 125.554 11.535C125.584 14.725 128.654 15.305 131.754 15.825C134.374 16.245 137.014 16.695 136.954 18.995C136.854 21.505 133.914 22.025 131.984 22.025C129.854 22.025 127.464 21.215 126.134 19.315L124.974 20.345C126.364 22.475 129.144 23.545 131.944 23.545C134.754 23.545 138.404 22.6049 138.504 19.085C138.664 15.375 134.754 14.885 131.914 14.405C129.914 14.045 127.134 13.625 127.074 11.495C127.004 9.46495 129.394 8.52495 131.884 8.55495C133.664 8.55495 135.244 8.81495 136.854 10.235L137.824 9.20495Z" fill="white"/>
<path d="M150.081 23.5149C154.571 23.5149 158.181 20.4149 158.181 15.3449C158.181 10.2749 154.571 7.04492 150.081 7.04492C145.591 7.04492 141.971 10.2749 141.971 15.3449C141.971 20.4149 145.591 23.5149 150.081 23.5149ZM150.081 21.9649C146.461 21.9649 143.521 19.4749 143.521 15.3449C143.521 11.2049 146.461 8.52492 150.081 8.52492C153.701 8.52492 156.631 11.2049 156.631 15.3449C156.631 19.4749 153.701 21.9649 150.081 21.9649Z" fill="white"/>
<path d="M161.978 0.684937V23.2849H163.558V0.684937H161.978Z" fill="white"/>
<path d="M175.082 23.5149C177.632 23.5149 180.412 22.4749 181.962 20.445L180.832 19.535C179.632 21.125 177.182 21.965 175.082 21.965C171.782 21.965 168.912 19.795 168.592 16.055H182.962C183.572 9.81495 179.572 7.07495 175.082 7.07495C170.592 7.07495 166.972 10.525 166.972 15.305C166.972 20.375 170.592 23.5149 175.082 23.5149ZM168.592 14.665C168.942 10.755 171.782 8.52495 175.082 8.52495C178.922 8.52495 181.502 10.725 181.542 14.665H168.592Z" fill="white"/>
<defs>
<clipPath id="clip0_5_25">
<rect width="19" height="19.0019" fill="white" transform="translate(83 5.76331)"/>
</clipPath>
<clipPath id="clip1_5_25">
<rect width="94.5214" height="94.5306" fill="white" transform="translate(83 5.76331)"/>
</clipPath>
</defs>
</svg>
